<?xml version="1.0" standalone="no"?><!DOCTYPE svg PUBLIC "-//W3C//DTD SVG 1.1//EN" "http://www.w3.org/Graphics/SVG/1.1/DTD/svg11.dtd"><svg t="1615104642476" class="icon" viewBox="0 0 1024 1024" version="1.1" xmlns="http://www.w3.org/2000/svg" p-id="2008" xmlns:xlink="http://www.w3.org/1999/xlink" width="200" height="200"><defs><style type="text/css"></style></defs><path d="M648.341333 630.208a50.816 50.816 0 0 1-36.010666-14.869333l-207.232-207.274667a50.624 50.624 0 0 1-14.912-35.968c0-13.696 5.290667-26.474667 14.912-36.053333l21.077333-21.098667c19.157333-19.178667 52.842667-19.157333 72.042667-0.021333l207.232 207.296c19.84 19.84 19.84 52.16 0.042666 72l-21.12 21.12a50.858667 50.858667 0 0 1-36.032 14.869333z m-186.154666-297.642667a18.218667 18.218667 0 0 0-12.992 5.354667l-21.098667 21.077333a18.282667 18.282667 0 0 0-5.354667 13.034667c0 4.970667 1.877333 9.578667 5.333334 12.992l207.232 207.274667a18.986667 18.986667 0 0 0 26.090666 0l21.077334-21.077334a18.474667 18.474667 0 0 0 0-26.090666l-207.232-207.232a18.453333 18.453333 0 0 0-13.056-5.333334z" p-id="2009"></path><path d="M686.677333 527.125333l-23.168-22.826666L983.466667 180.096c9.088-9.109333 8.533333-22.442667 7.424-29.610667-2.218667-14.037333-10.176-28.821333-21.909334-40.533333l-51.456-51.456c-22.912-22.933333-54.997333-29.610667-70.037333-14.549333L527.616 368.106667l-23.146667-22.848L824.384 21.013333c28.117333-28.053333 80.128-21.482667 116.117333 14.485334l51.456 51.456c16.746667 16.725333 27.754667 37.504 31.04 58.496 3.541333 22.570667-2.453333 43.562667-16.490666 57.514666L686.677333 527.125333zM429.397333 490.090667l100.885334 100.906666-272.896 272.917334a62.101333 62.101333 0 0 1-72.256 11.050666l-23.210667-12.010666-16.704 20.032-1.450667 1.792-0.490666 0.661333-96.170667 96.170667c-4.629333 4.629333-9.706667 6.250667-12.906667 6.250666l-1.237333-0.042666a0.576 0.576 0 0 0-0.234667 0.042666c-0.746667-1.834667-0.021333-8.448 6.058667-14.549333l95.850667-95.872c0.426667-0.384 0.853333-0.704 1.301333-1.045333l1.024-0.832 20.757333-16.661334-12.245333-23.616a62.506667 62.506667 0 0 1 11.029333-72.298666l272.896-272.896m0-45.994667L133.482667 740.010667a94.677333 94.677333 0 0 0-16.896 110.250666c-1.557333 1.258667-3.157333 2.453333-4.629334 3.925334L15.786667 950.357333c-18.325333 18.325333-21.12 45.546667-6.208 60.458667 6.464 6.464 15.232 9.621333 24.576 9.621333 12.245333 0 25.493333-5.418667 35.904-15.786666l96.170666-96.213334c1.472-1.450667 2.645333-3.050667 3.946667-4.586666 13.589333 7.04 28.565333 10.538667 43.541333 10.538666a93.952 93.952 0 0 0 66.666667-27.456l295.914667-295.914666-146.901334-146.922667z" p-id="2010"></path><path d="M25.770667 1006.912c-8.704-8.704-5.824-26.218667 6.186666-38.250667l96.192-96.170666c0.704-0.704 1.493333-1.301333 2.282667-1.92l10.154667-8.042667-4.970667-12.288a78.421333 78.421333 0 0 1 4.458667-79.701333l219.498666 27.242666-85.226666 85.205334c-23.893333 23.957333-61.696 29.76-91.861334 14.08l-11.328-5.824-9.088 11.114666c-0.597333 0.746667-1.173333 1.493333-1.877333 2.218667L64 1000.746667c-12.010667 12.053333-29.525333 14.869333-38.229333 6.165333z" p-id="2011"></path></svg>